<?xml version="1.0" encoding="UTF-8"?>
<svg width="100px" height="100px" viewBox="0 0 100 100" version="1.1" xmlns="http://www.w3.org/2000/svg">
  <g stroke="none" stroke-width="1" fill="none" fill-rule="evenodd">
    <g fill="#333333">
      <!-- Envelope body -->
      <path d="M85,25 L15,25 C10.0294,25 6,29.0294 6,34 L6,66 C6,70.9706 10.0294,75 15,75 L85,75 C89.9706,75 94,70.9706 94,66 L94,34 C94,29.0294 89.9706,25 85,25 Z M85,31 L85,34.8 L50,54.2 L15,34.8 L15,31 L85,31 Z M15,69 L15,42.4 L49.4,61.2 C49.58,61.3 49.78,61.4 50,61.4 C50.22,61.4 50.42,61.3 50.6,61.2 L85,42.4 L85,69 L15,69 Z"></path>
      <!-- Lock part -->
      <path d="M60,60 L75,60 L75,80 L60,80 L60,60 Z M59,55 C59,51.134 62.134,48 66,48 L70,48 C73.866,48 77,51.134 77,55 L77,59 L59,59 L59,55 Z"></path>
    </g>
  </g>
</svg> 